<?xml version="1.0" encoding="UTF-8" standalone="no"?>
<!-- Created with Inkscape (http://www.inkscape.org/) -->

<svg
   xmlns:dc="http://purl.org/dc/elements/1.1/"
   xmlns:cc="http://creativecommons.org/ns#"
   xmlns:rdf="http://www.w3.org/1999/02/22-rdf-syntax-ns#"
   xmlns:svg="http://www.w3.org/2000/svg"
   xmlns="http://www.w3.org/2000/svg"
   xmlns:sodipodi="http://sodipodi.sourceforge.net/DTD/sodipodi-0.dtd"
   xmlns:inkscape="http://www.inkscape.org/namespaces/inkscape"
   width="210mm"
   height="297mm"
   viewBox="0 0 210 297"
   version="1.1"
   id="svg8"
   inkscape:version="0.92.3 (2405546, 2018-03-11)"
   sodipodi:docname="bunny_yellow_jump.svg">
  <defs
     id="defs2" />
  <sodipodi:namedview
     id="base"
     pagecolor="#ffffff"
     bordercolor="#666666"
     borderopacity="1.0"
     inkscape:pageopacity="0.0"
     inkscape:pageshadow="2"
     inkscape:zoom="1.979899"
     inkscape:cx="365.31176"
     inkscape:cy="605.70931"
     inkscape:document-units="mm"
     inkscape:current-layer="layer1"
     showgrid="false"
     inkscape:window-width="1920"
     inkscape:window-height="1054"
     inkscape:window-x="0"
     inkscape:window-y="25"
     inkscape:window-maximized="1" />
  <metadata
     id="metadata5">
    <rdf:RDF>
      <cc:Work
         rdf:about="">
        <dc:format>image/svg+xml</dc:format>
        <dc:type
           rdf:resource="http://purl.org/dc/dcmitype/StillImage" />
        <dc:title></dc:title>
      </cc:Work>
    </rdf:RDF>
  </metadata>
  <g
     inkscape:label="Layer 1"
     inkscape:groupmode="layer"
     id="layer1">
    <ellipse
       style="opacity:1;fill:#eef09d;fill-opacity:1;stroke:#000000;stroke-width:2.6400001;stroke-linecap:round;stroke-linejoin:round;stroke-miterlimit:4;stroke-dasharray:none;stroke-opacity:1"
       id="path852"
       cx="90.749176"
       cy="189.37709"
       rx="4.0159969"
       ry="2.3086927"
       transform="rotate(-8.842997)" />
    <path
       style="fill:#eef09d;fill-opacity:1;fill-rule:evenodd;stroke:#000000;stroke-width:2.6400001;stroke-linecap:round;stroke-linejoin:round;stroke-miterlimit:4;stroke-dasharray:none;stroke-opacity:1"
       d="m 86.335251,153.30168 c 0.192059,1.35319 7.358205,6.11536 8.529824,7.78131 1.113545,1.58336 -1.156336,14.82395 2.971501,17.92005 2.482264,1.86182 0.06563,-5.15165 7.794074,-5.08969 9.0379,0.0724 6.11202,5.59708 8.30026,5.71068 5.99343,0.31116 0.67206,-15.47884 2.35057,-17.82721 1.67173,-2.33887 10.27879,-8.96722 8.91927,-8.99656 -6.49012,-0.1401 -17.0572,3.72481 -20.14467,3.31586 -3.08747,-0.40895 -10.558772,-3.46702 -18.720829,-2.81444 z"
       id="path850"
       inkscape:connector-curvature="0"
       sodipodi:nodetypes="csssssszc" />
    <path
       style="fill:#eef09d;fill-opacity:1;fill-rule:evenodd;stroke:#000000;stroke-width:2.64583325;stroke-linecap:butt;stroke-linejoin:miter;stroke-miterlimit:4;stroke-dasharray:none;stroke-opacity:1"
       d="m 85.578716,119.85488 c 0,0 -15.685625,-16.28554 -7.113033,-23.031412 8.91227,-7.013171 17.301459,18.890172 17.301459,18.890172 l 13.055818,-0.38138 c 0,0 8.79112,-29.506724 18.40641,-21.916969 9.34945,7.379919 -5.41799,23.676849 -5.41799,23.676849 0,0 10.95626,12.18341 10.24536,19.48788 -2.43135,24.98205 -53.839013,24.1327 -54.937326,-1.01188 -0.259584,-5.94288 8.459302,-15.71326 8.459302,-15.71326 z"
       id="path826"
       inkscape:connector-curvature="0"
       sodipodi:nodetypes="csccscssc" />
    <path
       style="fill:none;fill-rule:evenodd;stroke:#000000;stroke-width:1.58749998;stroke-linecap:round;stroke-linejoin:round;stroke-miterlimit:4;stroke-dasharray:none;stroke-opacity:1"
       d="m 102.38441,130.96733 c 0.87715,5.83264 -0.84397,7.68345 -2.750076,8.00324 -1.469667,0.24658 -3.158121,-0.7735 -3.471204,-3.40168"
       id="path828"
       inkscape:connector-curvature="0"
       sodipodi:nodetypes="csc" />
    <path
       sodipodi:nodetypes="csc"
       inkscape:connector-curvature="0"
       id="path830"
       d="m 102.38441,130.96733 c 0.68493,5.85832 2.83159,7.19234 4.75478,7.00048 1.48284,-0.14792 2.84426,-1.57551 2.45635,-4.19369"
       style="fill:none;fill-rule:evenodd;stroke:#000000;stroke-width:1.58749998;stroke-linecap:round;stroke-linejoin:round;stroke-miterlimit:4;stroke-dasharray:none;stroke-opacity:1" />
    <ellipse
       style="opacity:1;fill:#000000;fill-opacity:1;stroke:none;stroke-width:2.34855485;stroke-linecap:round;stroke-linejoin:round;stroke-miterlimit:4;stroke-dasharray:none;stroke-opacity:1"
       id="path832"
       cx="125.20597"
       cy="133.36653"
       rx="3.2918298"
       ry="1.6129292"
       transform="matrix(0.99999436,-0.00335862,-0.16977482,0.98548288,0,0)" />
    <ellipse
       style="opacity:1;fill:#ff6391;fill-opacity:1;stroke:none;stroke-width:1.26625907;stroke-linecap:round;stroke-linejoin:round;stroke-miterlimit:4;stroke-dasharray:none;stroke-opacity:1"
       id="path838"
       cx="98.809669"
       cy="128.87746"
       rx="3.9088168"
       ry="3.474504"
       transform="rotate(5.3790943)" />
    <ellipse
       ry="3.474504"
       rx="3.9088168"
       cy="122.06209"
       cx="133.35425"
       id="ellipse840"
       style="opacity:1;fill:#ff6391;fill-opacity:1;stroke:none;stroke-width:1.26625907;stroke-linecap:round;stroke-linejoin:round;stroke-miterlimit:4;stroke-dasharray:none;stroke-opacity:1"
       transform="rotate(5.3790943)" />
    <path
       style="fill:none;fill-rule:evenodd;stroke:#000000;stroke-width:2.11666656;stroke-linecap:round;stroke-linejoin:round;stroke-miterlimit:4;stroke-dasharray:none;stroke-opacity:1"
       d="m 130.17918,137.2757 c 1.68969,-1.37602 4.06547,-2.21888 7.5869,-2.17148"
       id="path842"
       inkscape:connector-curvature="0"
       sodipodi:nodetypes="cc" />
    <path
       style="fill:none;fill-rule:evenodd;stroke:#000000;stroke-width:2.11666656;stroke-linecap:round;stroke-linejoin:round;stroke-miterlimit:4;stroke-dasharray:none;stroke-opacity:1"
       d="m 129.27117,141.21697 c 2.27134,-0.38025 3.75594,-0.007 4.71838,1.92077"
       id="path844"
       inkscape:connector-curvature="0"
       sodipodi:nodetypes="cc" />
    <path
       style="fill:none;fill-rule:evenodd;stroke:#000000;stroke-width:2.11666656;stroke-linecap:round;stroke-linejoin:round;stroke-miterlimit:4;stroke-dasharray:none;stroke-opacity:1"
       d="m 75.769685,147.05159 c 1.156316,-1.9979 2.950193,-3.09275 5.051239,-3.7525"
       id="path846"
       inkscape:connector-curvature="0"
       sodipodi:nodetypes="cc" />
    <path
       style="fill:none;fill-rule:evenodd;stroke:#000000;stroke-width:2.11666656;stroke-linecap:round;stroke-linejoin:round;stroke-miterlimit:4;stroke-dasharray:none;stroke-opacity:1"
       d="m 71.514819,140.20811 c 3.233627,-1.19069 5.545295,-0.58594 7.93116,-0.12568"
       id="path848"
       inkscape:connector-curvature="0"
       sodipodi:nodetypes="cc" />
    <path
       style="fill:none;fill-rule:evenodd;stroke:#000000;stroke-width:2;stroke-linecap:round;stroke-linejoin:round;stroke-miterlimit:4;stroke-dasharray:none;stroke-opacity:1"
       d="m 85.325564,131.48457 c 3.010631,-6.13559 5.786748,-5.43279 8.41899,-0.53453"
       id="path841"
       inkscape:connector-curvature="0"
       sodipodi:nodetypes="cc" />
    <path
       sodipodi:nodetypes="cc"
       inkscape:connector-curvature="0"
       id="path867"
       d="m 110.71617,130.01459 c 3.01063,-6.13559 5.78675,-5.43279 8.41899,-0.53453"
       style="fill:none;fill-rule:evenodd;stroke:#000000;stroke-width:2;stroke-linecap:round;stroke-linejoin:round;stroke-miterlimit:4;stroke-dasharray:none;stroke-opacity:1" />
  </g>
</svg>
