<?xml version="1.0" encoding="UTF-8" standalone="no"?>
<!-- Created with Inkscape (http://www.inkscape.org/) -->

<svg
   xmlns:dc="http://purl.org/dc/elements/1.1/"
   xmlns:cc="http://creativecommons.org/ns#"
   xmlns:rdf="http://www.w3.org/1999/02/22-rdf-syntax-ns#"
   xmlns:svg="http://www.w3.org/2000/svg"
   xmlns="http://www.w3.org/2000/svg"
   xmlns:sodipodi="http://sodipodi.sourceforge.net/DTD/sodipodi-0.dtd"
   xmlns:inkscape="http://www.inkscape.org/namespaces/inkscape"
   width="210mm"
   height="297mm"
   viewBox="0 0 210 297"
   version="1.1"
   id="svg1492"
   inkscape:version="0.92.3 (2405546, 2018-03-11)"
   sodipodi:docname="bunny_yellow_idle_1.svg">
  <defs
     id="defs1486" />
  <sodipodi:namedview
     id="base"
     pagecolor="#ffffff"
     bordercolor="#666666"
     borderopacity="1.0"
     inkscape:pageopacity="0.0"
     inkscape:pageshadow="2"
     inkscape:zoom="1.979899"
     inkscape:cx="384.73498"
     inkscape:cy="673.56976"
     inkscape:document-units="mm"
     inkscape:current-layer="layer1"
     showgrid="false"
     inkscape:window-width="1920"
     inkscape:window-height="1054"
     inkscape:window-x="0"
     inkscape:window-y="25"
     inkscape:window-maximized="1" />
  <metadata
     id="metadata1489">
    <rdf:RDF>
      <cc:Work
         rdf:about="">
        <dc:format>image/svg+xml</dc:format>
        <dc:type
           rdf:resource="http://purl.org/dc/dcmitype/StillImage" />
        <dc:title></dc:title>
      </cc:Work>
    </rdf:RDF>
  </metadata>
  <g
     inkscape:label="Layer 1"
     inkscape:groupmode="layer"
     id="layer1">
    <ellipse
       style="opacity:1;fill:#eef09d;fill-opacity:1;stroke:#000000;stroke-width:2.6400001;stroke-linecap:round;stroke-linejoin:round;stroke-miterlimit:4;stroke-dasharray:none;stroke-opacity:1"
       id="path852"
       cx="53.273727"
       cy="192.62918"
       rx="4.0159969"
       ry="2.3086925"
       transform="rotate(-18.114819)" />
    <path
       style="fill:#eef09d;fill-opacity:1;fill-rule:evenodd;stroke:#000000;stroke-width:2.6400001;stroke-linecap:round;stroke-linejoin:round;stroke-miterlimit:4;stroke-dasharray:none;stroke-opacity:1"
       d="m 79.815522,154.12744 c 0.192059,1.35319 5.620953,-1.23455 6.792572,0.4314 1.113545,1.58336 -2.091779,14.55668 2.036057,17.65278 2.482266,1.86182 1.001073,-4.88438 8.729518,-4.82242 9.037901,0.0724 7.448371,5.32981 9.636611,5.44341 5.99343,0.31116 -0.66429,-15.21157 1.01422,-17.55994 1.67173,-2.33887 8.09243,-2.85766 8.38472,-4.18572 0.32526,-1.47644 -15.05267,-3.35782 -18.14014,-3.76677 -3.087471,-0.40895 -13.231466,0.94293 -18.453558,6.80726 z"
       id="path850"
       inkscape:connector-curvature="0"
       sodipodi:nodetypes="csssssszc" />
    <path
       style="fill:#eef09d;fill-opacity:1;fill-rule:evenodd;stroke:#000000;stroke-width:2.64583325;stroke-linecap:butt;stroke-linejoin:miter;stroke-miterlimit:4;stroke-dasharray:none;stroke-opacity:1"
       d="m 77.321735,113.33073 c 0,0 -14.616547,-32.588979 -3.10399,-35.459445 11.003889,-2.743637 13.292416,31.318205 13.292416,31.318205 l 13.055819,-0.38138 c 0,0 4.37717,-34.833598 15.73371,-31.672307 10.77201,2.998574 -2.74529,33.432187 -2.74529,33.432187 0,0 10.95626,12.18341 10.24536,19.48788 -2.43135,24.98205 -53.839014,24.1327 -54.937327,-1.01188 -0.259584,-5.94288 8.459302,-15.71326 8.459302,-15.71326 z"
       id="path826"
       inkscape:connector-curvature="0"
       sodipodi:nodetypes="csccscssc" />
    <path
       style="fill:none;fill-rule:evenodd;stroke:#000000;stroke-width:1.58749998;stroke-linecap:round;stroke-linejoin:round;stroke-miterlimit:4;stroke-dasharray:none;stroke-opacity:1"
       d="m 94.12743,124.44318 c 0.877149,5.83264 -0.843971,7.68345 -2.750077,8.00324 -1.469667,0.24658 -3.425391,0.0283 -4.206195,-2.3326"
       id="path828"
       inkscape:connector-curvature="0"
       sodipodi:nodetypes="csc" />
    <path
       sodipodi:nodetypes="csc"
       inkscape:connector-curvature="0"
       id="path830"
       d="m 94.12743,124.44318 c 0.684929,5.85832 2.831589,7.19234 4.754779,7.00048 1.482841,-0.14792 3.378801,-1.37506 3.525431,-3.99324"
       style="fill:none;fill-rule:evenodd;stroke:#000000;stroke-width:1.58749998;stroke-linecap:round;stroke-linejoin:round;stroke-miterlimit:4;stroke-dasharray:none;stroke-opacity:1" />
    <ellipse
       style="opacity:1;fill:#000000;fill-opacity:1;stroke:none;stroke-width:2.34855485;stroke-linecap:round;stroke-linejoin:round;stroke-miterlimit:4;stroke-dasharray:none;stroke-opacity:1"
       id="path832"
       cx="115.81955"
       cy="126.71429"
       rx="3.2918298"
       ry="1.6129292"
       transform="matrix(0.99999436,-0.00335862,-0.16977482,0.98548288,0,0)" />
    <ellipse
       style="opacity:1;fill:#000000;fill-opacity:1;stroke:none;stroke-width:1.34431541;stroke-linecap:round;stroke-linejoin:round;stroke-miterlimit:4;stroke-dasharray:none;stroke-opacity:1"
       id="path834"
       cx="92.904175"
       cy="117.1973"
       rx="1.8190105"
       ry="1.9016926"
       transform="rotate(5.3790943)" />
    <ellipse
       ry="1.9016926"
       rx="1.8190105"
       cy="112.72052"
       cx="118.0275"
       id="ellipse836"
       style="opacity:1;fill:#000000;fill-opacity:1;stroke:none;stroke-width:1.34431541;stroke-linecap:round;stroke-linejoin:round;stroke-miterlimit:4;stroke-dasharray:none;stroke-opacity:1"
       transform="rotate(5.3790943)" />
    <ellipse
       style="opacity:1;fill:#ff6391;fill-opacity:1;stroke:none;stroke-width:1.26625907;stroke-linecap:round;stroke-linejoin:round;stroke-miterlimit:4;stroke-dasharray:none;stroke-opacity:1"
       id="path838"
       cx="89.977448"
       cy="123.15609"
       rx="3.9088166"
       ry="3.474504"
       transform="rotate(5.3790943)" />
    <ellipse
       ry="3.474504"
       rx="3.9088166"
       cy="116.34072"
       cx="124.52202"
       id="ellipse840"
       style="opacity:1;fill:#ff6391;fill-opacity:1;stroke:none;stroke-width:1.26625907;stroke-linecap:round;stroke-linejoin:round;stroke-miterlimit:4;stroke-dasharray:none;stroke-opacity:1"
       transform="rotate(5.3790943)" />
    <path
       style="fill:none;fill-rule:evenodd;stroke:#000000;stroke-width:2.11666656;stroke-linecap:round;stroke-linejoin:round;stroke-miterlimit:4;stroke-dasharray:none;stroke-opacity:1"
       d="m 121.9222,130.75155 c 1.68969,-1.37602 4.46637,-2.75342 7.72053,-4.176"
       id="path842"
       inkscape:connector-curvature="0"
       sodipodi:nodetypes="cc" />
    <path
       style="fill:none;fill-rule:evenodd;stroke:#000000;stroke-width:2.11666656;stroke-linecap:round;stroke-linejoin:round;stroke-miterlimit:4;stroke-dasharray:none;stroke-opacity:1"
       d="m 121.01419,134.69282 c 2.27134,-0.38025 7.65834,-0.35102 7.65834,-0.35102"
       id="path844"
       inkscape:connector-curvature="0"
       sodipodi:nodetypes="cc" />
    <path
       style="fill:none;fill-rule:evenodd;stroke:#000000;stroke-width:2.11666656;stroke-linecap:round;stroke-linejoin:round;stroke-miterlimit:4;stroke-dasharray:none;stroke-opacity:1"
       d="m 65.641817,139.72563 c 0,0 4.82108,-2.29094 6.922126,-2.95069"
       id="path846"
       inkscape:connector-curvature="0"
       sodipodi:nodetypes="cc" />
    <path
       style="fill:none;fill-rule:evenodd;stroke:#000000;stroke-width:2.11666656;stroke-linecap:round;stroke-linejoin:round;stroke-miterlimit:4;stroke-dasharray:none;stroke-opacity:1"
       d="m 63.124203,131.74626 c 3.367262,0.61338 5.67893,1.35176 8.064795,1.81202"
       id="path848"
       inkscape:connector-curvature="0"
       sodipodi:nodetypes="cc" />
  </g>
</svg>
